<?xml version="1.0" encoding="utf-8"?>
<!-- Generator: Adobe Illustrator 16.0.0, SVG Export Plug-In . SVG Version: 6.00 Build 0)  -->
<!DOCTYPE svg PUBLIC "-//W3C//DTD SVG 1.1//EN" "http://www.w3.org/Graphics/SVG/1.1/DTD/svg11.dtd" [
	<!ENTITY ns_flows "http://ns.adobe.com/Flows/1.0/">
	<!ENTITY ns_extend "http://ns.adobe.com/Extensibility/1.0/">
	<!ENTITY ns_ai "http://ns.adobe.com/AdobeIllustrator/10.0/">
	<!ENTITY ns_graphs "http://ns.adobe.com/Graphs/1.0/">
]>
<svg version="1.1" id="Capa_1" xmlns:x="&ns_extend;" xmlns:i="&ns_ai;" xmlns:graph="&ns_graphs;"
	 xmlns="http://www.w3.org/2000/svg" xmlns:xlink="http://www.w3.org/1999/xlink" xmlns:a="http://ns.adobe.com/AdobeSVGViewerExtensions/3.0/"
	 x="0px" y="0px" width="2.921px" height="4.346px" viewBox="0 0 2.921 4.346" enable-background="new 0 0 2.921 4.346"
	 xml:space="preserve">
<g>
	<g>
		<path fill="#FFC627" d="M2.462,1.135L2.148,0H0.772L0.458,1.135C0.193,1.4,0,1.763,0,2.173s0.169,0.772,0.458,1.038l0.314,1.135
			h1.376l0.313-1.135c0.266-0.266,0.459-0.628,0.459-1.038C2.921,1.786,2.753,1.4,2.462,1.135z M1.062,0.362h0.822L2.028,0.82
			c-0.17-0.072-0.362-0.096-0.531-0.096c-0.17,0-0.387,0.048-0.531,0.096L1.062,0.362z M1.858,4.008h-0.82L0.893,3.549
			c0.168,0.072,0.362,0.097,0.532,0.097c0.168,0,0.386-0.048,0.531-0.097L1.858,4.008z M1.448,3.283
			c-0.604,0-1.086-0.482-1.086-1.086S0.845,1.11,1.448,1.11s1.087,0.483,1.087,1.087C2.56,2.801,2.052,3.283,1.448,3.283z"/>
		<polygon fill="#FFC627" points="0.917,2.729 1.448,1.642 2.004,2.729 1.448,2.366 		"/>
	</g>
</g>
<g>
</g>
<g>
</g>
<g>
</g>
<g>
</g>
<g>
</g>
<g>
</g>
<g>
</g>
<g>
</g>
<g>
</g>
<g>
</g>
<g>
</g>
<g>
</g>
<g>
</g>
<g>
</g>
<g>
</g>
</svg>
