<?xml version="1.0" encoding="utf-8"?>
<!-- Generator: Adobe Illustrator 16.0.0, SVG Export Plug-In . SVG Version: 6.00 Build 0)  -->
<!DOCTYPE svg PUBLIC "-//W3C//DTD SVG 1.1//EN" "http://www.w3.org/Graphics/SVG/1.1/DTD/svg11.dtd" [
	<!ENTITY ns_flows "http://ns.adobe.com/Flows/1.0/">
	<!ENTITY ns_extend "http://ns.adobe.com/Extensibility/1.0/">
	<!ENTITY ns_ai "http://ns.adobe.com/AdobeIllustrator/10.0/">
	<!ENTITY ns_graphs "http://ns.adobe.com/Graphs/1.0/">
]>
<svg version="1.1" id="Capa_1" xmlns:x="&ns_extend;" xmlns:i="&ns_ai;" xmlns:graph="&ns_graphs;"
	 xmlns="http://www.w3.org/2000/svg" xmlns:xlink="http://www.w3.org/1999/xlink" xmlns:a="http://ns.adobe.com/AdobeSVGViewerExtensions/3.0/"
	 x="0px" y="0px" width="2.796px" height="5.239px" viewBox="0 0 2.796 5.239" enable-background="new 0 0 2.796 5.239"
	 xml:space="preserve">
<path fill="#77777A" d="M2.704,0H2.028C1.255,0,0.772,0.507,0.772,1.304v0.604H0.097C0.048,1.908,0,1.956,0,2.004v0.869
	c0,0.048,0.048,0.096,0.097,0.096h0.676v2.174c0,0.048,0.048,0.096,0.097,0.096h0.894c0.048,0,0.096-0.048,0.096-0.096V2.969h0.797
	c0.049,0,0.097-0.048,0.097-0.096V2.004c0-0.024,0-0.048-0.024-0.073C2.704,1.908,2.68,1.908,2.655,1.908H1.858V1.4
	c0-0.241,0.049-0.362,0.362-0.362H2.68c0.048,0,0.097-0.048,0.097-0.097V0.145C2.824,0.048,2.776,0,2.704,0L2.704,0z"/>
<g>
</g>
<g>
</g>
<g>
</g>
<g>
</g>
<g>
</g>
<g>
</g>
<g>
</g>
<g>
</g>
<g>
</g>
<g>
</g>
<g>
</g>
<g>
</g>
<g>
</g>
<g>
</g>
<g>
</g>
</svg>
