<?xml version="1.0" encoding="utf-8"?>
<!-- Generator: Adobe Illustrator 16.0.0, SVG Export Plug-In . SVG Version: 6.00 Build 0)  -->
<!DOCTYPE svg PUBLIC "-//W3C//DTD SVG 1.1//EN" "http://www.w3.org/Graphics/SVG/1.1/DTD/svg11.dtd" [
	<!ENTITY ns_flows "http://ns.adobe.com/Flows/1.0/">
	<!ENTITY ns_extend "http://ns.adobe.com/Extensibility/1.0/">
	<!ENTITY ns_ai "http://ns.adobe.com/AdobeIllustrator/10.0/">
	<!ENTITY ns_graphs "http://ns.adobe.com/Graphs/1.0/">
]>
<svg version="1.1" id="Capa_1" xmlns:x="&ns_extend;" xmlns:i="&ns_ai;" xmlns:graph="&ns_graphs;"
	 xmlns="http://www.w3.org/2000/svg" xmlns:xlink="http://www.w3.org/1999/xlink" xmlns:a="http://ns.adobe.com/AdobeSVGViewerExtensions/3.0/"
	 x="0px" y="0px" width="6.856px" height="5.264px" viewBox="0 0 6.856 5.264" enable-background="new 0 0 6.856 5.264"
	 xml:space="preserve">
<g>
	<path fill="#77777A" d="M6.833,0.7C6.736,0.266,6.374,0,5.939,0C5.336,0,4.732,0,4.129,0H3.38H2.656c-0.58,0-1.159,0-1.739,0
		C0.387,0,0,0.386,0,0.917C0,2.077,0,3.211,0,4.37c0,0.098,0.024,0.218,0.048,0.291c0.121,0.386,0.459,0.604,0.894,0.604h4.998l0,0
		c0.024,0,0.048,0,0.072,0C6.374,5.239,6.64,5.046,6.784,4.733c0.024-0.049,0.049-0.121,0.049-0.17c0-0.023,0.023-0.048,0.023-0.072
		V0.797L6.833,0.7z M0.531,4.443c0-0.048,0-0.097,0-0.121V3.26c0-0.773,0-1.546,0-2.294c0-0.121,0.048-0.217,0.12-0.29
		c0.073-0.072,0.193-0.121,0.314-0.121l0,0c1.207,0,2.414,0,3.621,0h1.353c0.145,0,0.338,0.048,0.386,0.29c0,0.048,0,0.097,0,0.145
		c0,1.135,0,2.27,0,3.379c0,0.242-0.145,0.387-0.386,0.387c-0.579,0-1.183,0-1.763,0H3.429H2.897H0.941
		C0.725,4.733,0.579,4.635,0.531,4.443z"/>
	<path fill="#77777A" d="M0.966,4.032c-0.072,0.072-0.072,0.193-0.024,0.29C0.99,4.418,1.11,4.467,1.207,4.443
		c0.049-0.024,0.121-0.048,0.146-0.097c0.41-0.387,0.796-0.748,1.207-1.135l0.313-0.29l0.338,0.313c0.146,0.146,0.266,0.146,0.411,0
		l0.361-0.313L5.48,4.346C5.505,4.37,5.529,4.395,5.553,4.418c0.049,0.024,0.097,0.049,0.146,0.049c0.048,0,0.097-0.024,0.145-0.049
		C5.939,4.346,5.964,4.25,5.939,4.153C5.915,4.104,5.892,4.032,5.843,3.984C5.626,3.766,5.384,3.549,5.167,3.333L4.37,2.56
		l1.328-1.183l0.048-0.048C5.795,1.28,5.843,1.256,5.891,1.208c0.097-0.097,0.097-0.242,0-0.338
		C5.795,0.773,5.649,0.749,5.553,0.845C5.529,0.87,5.529,0.87,5.505,0.894L3.452,2.752L1.376,0.894
		c-0.121-0.121-0.289-0.121-0.386,0C0.941,0.942,0.917,1.014,0.917,1.063c0,0.072,0.049,0.145,0.121,0.217l1.497,1.328L1.063,3.984
		C0.99,4.008,0.99,4.032,0.966,4.032z"/>
</g>
<g>
</g>
<g>
</g>
<g>
</g>
<g>
</g>
<g>
</g>
<g>
</g>
<g>
</g>
<g>
</g>
<g>
</g>
<g>
</g>
<g>
</g>
<g>
</g>
<g>
</g>
<g>
</g>
<g>
</g>
</svg>
