<?xml version="1.0" encoding="utf-8"?>
<!-- Generator: Adobe Illustrator 16.0.0, SVG Export Plug-In . SVG Version: 6.00 Build 0)  -->
<!DOCTYPE svg PUBLIC "-//W3C//DTD SVG 1.1//EN" "http://www.w3.org/Graphics/SVG/1.1/DTD/svg11.dtd" [
	<!ENTITY ns_flows "http://ns.adobe.com/Flows/1.0/">
	<!ENTITY ns_extend "http://ns.adobe.com/Extensibility/1.0/">
	<!ENTITY ns_ai "http://ns.adobe.com/AdobeIllustrator/10.0/">
	<!ENTITY ns_graphs "http://ns.adobe.com/Graphs/1.0/">
]>
<svg version="1.1" id="Capa_1" xmlns:x="&ns_extend;" xmlns:i="&ns_ai;" xmlns:graph="&ns_graphs;"
	 xmlns="http://www.w3.org/2000/svg" xmlns:xlink="http://www.w3.org/1999/xlink" xmlns:a="http://ns.adobe.com/AdobeSVGViewerExtensions/3.0/"
	 x="0px" y="0px" width="5.041px" height="5.832px" viewBox="0 0 5.041 5.832" enable-background="new 0 0 5.041 5.832"
	 xml:space="preserve">
<path fill="#77777A" d="M4.593,3.604l-1.11-0.146c-0.29-0.048-0.58,0.169-0.628,0.459C2.179,3.7,1.72,3.097,1.695,2.373
	C1.985,2.397,2.251,2.18,2.299,1.89l0.146-1.11c0.048-0.314-0.17-0.58-0.483-0.628l-1.11-0.145c-0.314-0.049-0.58,0.169-0.628,0.482
	L0.029,1.866c-0.241,1.811,1.038,3.5,2.849,3.766l1.377,0.193c0.313,0.049,0.579-0.169,0.627-0.482l0.146-1.111
	C5.1,3.918,4.882,3.628,4.593,3.604z M2.975,5.053c-1.521-0.218-2.583-1.618-2.39-3.139l0.193-1.376l1.11,0.145l-0.146,1.11
	L1.478,1.745c-0.072,0-0.145,0-0.217,0.048C1.213,1.841,1.164,1.914,1.164,1.986C1.02,3.241,1.84,4.328,3.071,4.497
	c0.146,0.024,0.29-0.096,0.314-0.241L3.434,3.99l1.11,0.146l-0.145,1.11L2.975,5.053z"/>
<g>
</g>
<g>
</g>
<g>
</g>
<g>
</g>
<g>
</g>
<g>
</g>
<g>
</g>
<g>
</g>
<g>
</g>
<g>
</g>
<g>
</g>
<g>
</g>
<g>
</g>
<g>
</g>
<g>
</g>
</svg>
