<?xml version="1.0" encoding="utf-8"?>
<!-- Generator: Adobe Illustrator 16.0.0, SVG Export Plug-In . SVG Version: 6.00 Build 0)  -->
<!DOCTYPE svg PUBLIC "-//W3C//DTD SVG 1.1//EN" "http://www.w3.org/Graphics/SVG/1.1/DTD/svg11.dtd" [
	<!ENTITY ns_flows "http://ns.adobe.com/Flows/1.0/">
	<!ENTITY ns_extend "http://ns.adobe.com/Extensibility/1.0/">
	<!ENTITY ns_ai "http://ns.adobe.com/AdobeIllustrator/10.0/">
	<!ENTITY ns_graphs "http://ns.adobe.com/Graphs/1.0/">
]>
<svg version="1.1" id="Capa_1" xmlns:x="&ns_extend;" xmlns:i="&ns_ai;" xmlns:graph="&ns_graphs;"
	 xmlns="http://www.w3.org/2000/svg" xmlns:xlink="http://www.w3.org/1999/xlink" xmlns:a="http://ns.adobe.com/AdobeSVGViewerExtensions/3.0/"
	 x="0px" y="0px" width="7.405px" height="8.239px" viewBox="0 0 7.405 8.239" enable-background="new 0 0 7.405 8.239"
	 xml:space="preserve">
<g>
	<path fill="#FFC627" d="M6.86,0H2.178v0.254H6.86c0.146,0,0.29,0.145,0.29,0.291v5.844H0.254V0.545
		c0-0.146,0.146-0.291,0.291-0.291h1.851V0H0.545C0.254,0,0,0.254,0,0.545v5.844v1.271l0,0h0.436v0.58h6.533v-0.58h0.437l0,0V6.389
		V0.545C7.405,0.218,7.15,0,6.86,0z M6.715,7.985H0.689V7.659h0.653V7.405H0.689l0,0H0.254V6.606H7.15v0.799H6.715l0,0H1.634v0.254
		h5.081V7.985z"/>
	<rect x="5.082" y="2.178" fill="#FFC627" width="1.271" height="0.254"/>
	<rect x="0.653" y="1.561" fill="#FFC627" width="6.171" height="0.254"/>
	<rect x="1.343" y="6.788" fill="#FFC627" width="0.254" height="0.399"/>
	<rect x="1.814" y="6.788" fill="#FFC627" width="0.255" height="0.399"/>
	<rect x="2.323" y="6.788" fill="#FFC627" width="0.254" height="0.399"/>
	<rect x="4.864" y="6.788" fill="#FFC627" width="0.254" height="0.399"/>
	<rect x="5.336" y="6.788" fill="#FFC627" width="0.254" height="0.399"/>
	<rect x="5.844" y="6.788" fill="#FFC627" width="0.254" height="0.399"/>
</g>
<g>
</g>
<g>
</g>
<g>
</g>
<g>
</g>
<g>
</g>
<g>
</g>
<g>
</g>
<g>
</g>
<g>
</g>
<g>
</g>
<g>
</g>
<g>
</g>
<g>
</g>
<g>
</g>
<g>
</g>
</svg>
