<?xml version="1.0" encoding="utf-8"?>
<!-- Generator: Adobe Illustrator 16.0.0, SVG Export Plug-In . SVG Version: 6.00 Build 0)  -->
<!DOCTYPE svg PUBLIC "-//W3C//DTD SVG 1.1//EN" "http://www.w3.org/Graphics/SVG/1.1/DTD/svg11.dtd" [
	<!ENTITY ns_flows "http://ns.adobe.com/Flows/1.0/">
	<!ENTITY ns_extend "http://ns.adobe.com/Extensibility/1.0/">
	<!ENTITY ns_ai "http://ns.adobe.com/AdobeIllustrator/10.0/">
	<!ENTITY ns_graphs "http://ns.adobe.com/Graphs/1.0/">
]>
<svg version="1.1" id="Capa_1" xmlns:x="&ns_extend;" xmlns:i="&ns_ai;" xmlns:graph="&ns_graphs;"
	 xmlns="http://www.w3.org/2000/svg" xmlns:xlink="http://www.w3.org/1999/xlink" xmlns:a="http://ns.adobe.com/AdobeSVGViewerExtensions/3.0/"
	 x="0px" y="0px" width="6.643px" height="8.313px" viewBox="0 0 6.643 8.313" enable-background="new 0 0 6.643 8.313"
	 xml:space="preserve">
<g>
	<path fill="#FFC627" d="M6.17,0H0.472C0.218,0,0,0.218,0,0.472v7.405h0.617v0.436h0.726l0.182-0.436h3.594l0.181,0.436h0.727V7.877
		h0.617V0.436C6.643,0.182,6.425,0,6.17,0z M1.197,8.059h-0.29V7.877h0.363L1.197,8.059z M5.734,8.059h-0.29L5.372,7.877h0.362
		V8.059z M6.388,7.623H0.254V1.706c0.799,0.399,1.888,0.617,3.049,0.617c1.162,0,2.287-0.218,3.049-0.617v5.917H6.388z M6.388,1.416
		C5.626,1.852,4.537,2.069,3.339,2.069c-1.197,0-2.286-0.254-3.049-0.653V0.472c0-0.109,0.109-0.218,0.218-0.218h5.699
		c0.108,0,0.218,0.109,0.218,0.218v0.944H6.388z"/>
	<path fill="#FFC627" d="M3.992,0.399H2.613c-0.182,0-0.29,0.145-0.29,0.291v0.689c0,0.182,0.145,0.291,0.29,0.291h1.379
		c0.182,0,0.291-0.146,0.291-0.291V0.69C4.319,0.544,4.174,0.399,3.992,0.399z M4.065,1.379c0,0.037-0.036,0.037-0.036,0.037h-1.38
		c-0.036,0-0.036-0.037-0.036-0.037V0.69c0-0.037,0.036-0.037,0.036-0.037h1.38c0.036,0,0.036,0.037,0.036,0.037V1.379z"/>
	<path fill="#FFC627" d="M1.161,1.379C1.053,1.343,0.979,1.234,0.943,1.089L0.689,1.125c0.036,0.218,0.146,0.399,0.363,0.472
		C1.125,1.634,1.233,1.67,1.307,1.67c0.108,0,0.218-0.036,0.326-0.109L1.488,1.343C1.415,1.416,1.271,1.416,1.161,1.379z"/>
	<path fill="#FFC627" d="M1.924,0.98C1.888,0.762,1.778,0.581,1.561,0.508C1.379,0.436,1.161,0.436,0.979,0.544
		C0.907,0.581,0.871,0.617,0.835,0.69L0.689,0.617L0.58,0.835l1.38,0.653l0.108-0.218L1.924,1.198
		C1.924,1.125,1.924,1.053,1.924,0.98z M1.67,1.089l-0.617-0.29l0.036-0.037C1.197,0.69,1.307,0.69,1.452,0.726
		C1.561,0.762,1.633,0.871,1.67,1.017C1.67,1.017,1.67,1.053,1.67,1.089z"/>
	<path fill="#FFC627" d="M4.827,0.653c-0.218,0-0.399,0.182-0.399,0.399s0.182,0.399,0.399,0.399s0.399-0.182,0.399-0.399
		S5.045,0.653,4.827,0.653z M4.827,1.234c-0.072,0-0.145-0.073-0.145-0.146c0-0.072,0.072-0.145,0.145-0.145
		c0.073,0,0.146,0.073,0.146,0.145C4.973,1.162,4.9,1.234,4.827,1.234z"/>
	<path fill="#FFC627" d="M5.734,0.653c-0.218,0-0.398,0.182-0.398,0.399s0.181,0.399,0.398,0.399s0.399-0.182,0.399-0.399
		S5.952,0.653,5.734,0.653z M5.734,1.234c-0.072,0-0.145-0.073-0.145-0.146c0-0.072,0.072-0.145,0.145-0.145
		c0.073,0,0.146,0.073,0.146,0.145C5.88,1.162,5.808,1.234,5.734,1.234z"/>
	<path fill="#FFC627" d="M1.271,4.429H1.053c-0.109,0-0.255,0.036-0.327,0.146C0.653,4.646,0.58,4.791,0.58,4.9
		c0,0.254,0.218,0.472,0.473,0.472h0.218c0.218,0.944,1.053,1.634,2.032,1.634c1.162,0,2.105-0.943,2.105-2.105
		c0-1.162-0.943-2.105-2.105-2.105C2.323,2.832,1.488,3.521,1.271,4.429z M1.233,5.118H1.053c-0.109,0-0.218-0.108-0.218-0.218
		c0-0.072,0.036-0.109,0.072-0.146s0.108-0.072,0.146-0.072h0.181c0,0.072,0,0.146,0,0.218S1.233,5.045,1.233,5.118z M5.154,4.9
		c0,1.016-0.835,1.852-1.852,1.852S1.452,5.916,1.452,4.9c0-1.017,0.834-1.851,1.851-1.851C4.319,3.085,5.154,3.884,5.154,4.9z"/>
	<path fill="#FFC627" d="M1.742,4.9c0,0.871,0.689,1.561,1.561,1.561S4.863,5.771,4.863,4.9S4.174,3.339,3.303,3.339
		S1.742,4.029,1.742,4.9z M4.646,4.9c0,0.727-0.58,1.307-1.307,1.307c-0.726,0-1.307-0.58-1.307-1.307
		c0-0.726,0.581-1.307,1.307-1.307C4.065,3.594,4.646,4.174,4.646,4.9z"/>
</g>
<g>
</g>
<g>
</g>
<g>
</g>
<g>
</g>
<g>
</g>
<g>
</g>
<g>
</g>
<g>
</g>
<g>
</g>
<g>
</g>
<g>
</g>
<g>
</g>
<g>
</g>
<g>
</g>
<g>
</g>
</svg>
