<?xml version="1.0" encoding="utf-8"?>
<!-- Generator: Adobe Illustrator 16.0.0, SVG Export Plug-In . SVG Version: 6.00 Build 0)  -->
<!DOCTYPE svg PUBLIC "-//W3C//DTD SVG 1.1//EN" "http://www.w3.org/Graphics/SVG/1.1/DTD/svg11.dtd" [
	<!ENTITY ns_flows "http://ns.adobe.com/Flows/1.0/">
	<!ENTITY ns_extend "http://ns.adobe.com/Extensibility/1.0/">
	<!ENTITY ns_ai "http://ns.adobe.com/AdobeIllustrator/10.0/">
	<!ENTITY ns_graphs "http://ns.adobe.com/Graphs/1.0/">
]>
<svg version="1.1" id="Capa_1" xmlns:x="&ns_extend;" xmlns:i="&ns_ai;" xmlns:graph="&ns_graphs;"
	 xmlns="http://www.w3.org/2000/svg" xmlns:xlink="http://www.w3.org/1999/xlink" xmlns:a="http://ns.adobe.com/AdobeSVGViewerExtensions/3.0/"
	 x="0px" y="0px" width="7.536px" height="7.704px" viewBox="0 0 7.536 7.704" enable-background="new 0 0 7.536 7.704"
	 xml:space="preserve">
<g>
	<g>
		<g id="L1_15_1_" transform="matrix(0.10496434569358826 0 0 0.10496434569358826 -0.3072996266909058 220.70075381547213)">
			<circle fill="#FFC627" cx="19.005" cy="-2081.144" r="0.216"/>
			<path fill="#FFC627" d="M73.525-2072.177H56.974v-2.684h5.154c2.065,0,3.74-1.67,3.74-3.74v-1.67
				c0.474-0.219,0.902-0.544,1.265-0.944c0.698-0.8,1.061-1.852,0.912-2.94l-1.777-14.118c-0.326-2.507-2.438-4.359-4.94-4.359
				H9.683c-2.512,0-4.652,1.889-4.94,4.359l-1.777,14.118c-0.149,1.052,0.177,2.14,0.902,2.94c0.688,0.8,1.749,1.27,2.8,1.27h5.843
				l-2.103,42.439l-3.164,1.517c-1.265,0.623-2.103,1.926-2.103,3.34v2.214c0,0.651,0.54,1.2,1.2,1.2h62.14
				c0.651,0,1.2-0.549,1.2-1.2v-2.54c0-2.763-2.251-5.015-5.015-5.015h-1.34v-2.754c5.694-0.577,10.123-5.406,10.123-11.286v-17.826
				h0.074c0.651,0,1.2-0.544,1.2-1.196C74.725-2071.67,74.176-2072.177,73.525-2072.177z M54.583-2072.177H38.031
				c-0.661,0-1.2,0.544-1.2,1.196c0,0.656,0.54,1.2,1.2,1.2h0.065v17.817c0,5.852,4.466,10.681,10.132,11.295v2.717
				c-11.76-0.465-21.306-9.862-21.929-21.734l-1.088-21.673v-2.289c0-0.726,0.624-1.34,1.349-1.34h16.477
				c0.726,0,1.34,0.614,1.34,1.34c0,1.633,1.051,3.052,2.54,3.521v1.563c0,2.065,1.675,3.74,3.74,3.74h3.889v2.647H54.583z
				 M62.128-2077.257H50.731c-0.726,0-1.34-0.619-1.34-1.344v-1.344h14.114v1.344C63.468-2077.875,62.854-2077.257,62.128-2077.257z
				 M5.645-2082.774c-0.251-0.293-0.363-0.656-0.326-1.056l1.787-14.118c0.139-1.307,1.265-2.284,2.577-2.284h51.608
				c1.312,0,2.438,0.977,2.577,2.284l1.786,14.118c0.028,0.4-0.074,0.763-0.335,1.056c-0.251,0.288-0.614,0.47-1.014,0.47H48.154
				c-0.726,0-1.34-0.619-1.34-1.344c0-2.065-1.675-3.735-3.74-3.735H26.597c-2.075,0-3.74,1.67-3.74,3.735v2.326
				c0,2.103-1.526,3.885-3.489,4.066c-1.126,0.107-2.177-0.256-3.015-0.982c-0.791-0.726-1.265-1.777-1.265-2.865
				c0-0.656-0.549-1.2-1.2-1.2H6.631C6.268-2082.341,5.905-2082.486,5.645-2082.774z M67.282-2032.976v1.349H7.496v-1.023
				c0-0.502,0.298-0.977,0.763-1.191l3.815-1.861c0.4-0.177,0.651-0.577,0.651-1.014l2-39.853c0.037,0.037,0.037,0.037,0.074,0.07
				c1.154,1.056,2.643,1.637,4.206,1.637c0.186,0,0.4,0,0.586-0.037c1.34-0.144,2.54-0.726,3.517-1.6l0.837,16.924
				c0.688,13.462,11.76,24.022,25.26,24.022H64.63C66.082-2035.59,67.282-2034.39,67.282-2032.976z M50.619-2037.953v-2.679h10.309
				v2.679H50.619z M71.06-2052.002c0,4.949-4.029,8.969-8.969,8.969H49.428c-4.94,0-8.969-4.019-8.969-8.969v-17.817h14.123v2.689
				h-1.349c-0.651,0-1.2,0.544-1.2,1.196c0,0.656,0.549,1.2,1.2,1.2h1.349v0.688l-5.778,3.447c-0.4,0.223-0.614,0.651-0.577,1.126
				c0.037,0.437,0.837,10.522,6.82,14.812c0.223,0.14,0.437,0.214,0.688,0.214c0.26,0,0.474-0.074,0.698-0.214
				c5.982-4.289,6.782-14.412,6.819-14.812c0.038-0.437-0.177-0.865-0.577-1.126l-5.778-3.447v-0.688h1.349
				c0.651,0,1.191-0.544,1.191-1.2c0-0.651-0.54-1.196-1.191-1.196h-1.349v-2.689h14.124L71.06-2052.002L71.06-2052.002z
				 M54.583-2048.438c-2.763-3.452-3.638-8.643-3.889-10.522l3.889-2.326V-2048.438z M56.974-2061.287l3.889,2.326
				c-0.111,0.902-0.4,2.605-0.949,4.503c-0.54,1.842-1.489,4.168-2.94,6.02V-2061.287L56.974-2061.287z"/>
			<path fill="#FFC627" d="M29.137-2090.11h10.123c0.651,0,1.2-0.544,1.2-1.196c0-0.656-0.549-1.196-1.2-1.196H29.137
				c-0.661,0-1.2,0.54-1.2,1.196C27.974-2090.617,28.476-2090.11,29.137-2090.11z"/>
			<path fill="#FFC627" d="M29.137-2095.19h10.123c0.651,0,1.2-0.544,1.2-1.2c0-0.651-0.549-1.196-1.2-1.196H29.137
				c-0.661,0-1.2,0.544-1.2,1.196C27.974-2095.697,28.476-2095.19,29.137-2095.19z"/>
			<path fill="#FFC627" d="M10.911-2086.733c1.125,1.052,2.614,1.707,4.289,1.707c3.442,0,6.243-2.796,6.243-6.243
				c0-1.633-0.624-3.122-1.675-4.247c-0.037-0.074-0.074-0.112-0.14-0.181c-0.037-0.074-0.111-0.112-0.186-0.144
				c-1.125-1.056-2.614-1.707-4.28-1.707c-3.452,0-6.243,2.796-6.243,6.243c0,1.633,0.614,3.122,1.666,4.247
				c0.037,0.074,0.074,0.107,0.149,0.181C10.799-2086.807,10.874-2086.77,10.911-2086.733z M15.2-2087.421
				c-0.661,0-1.237-0.144-1.787-0.437l5.229-5.224c0.251,0.544,0.437,1.121,0.437,1.777
				C19.079-2089.166,17.339-2087.421,15.2-2087.421z M15.2-2095.19c0.651,0,1.228,0.144,1.777,0.437l-5.229,5.224
				c-0.251-0.544-0.438-1.126-0.438-1.777C11.311-2093.446,13.05-2095.19,15.2-2095.19z"/>
		</g>
	</g>
</g>
<g>
</g>
<g>
</g>
<g>
</g>
<g>
</g>
<g>
</g>
<g>
</g>
<g>
</g>
<g>
</g>
<g>
</g>
<g>
</g>
<g>
</g>
<g>
</g>
<g>
</g>
<g>
</g>
<g>
</g>
</svg>
