<?xml version="1.0" encoding="utf-8"?>
<!-- Generator: Adobe Illustrator 16.0.0, SVG Export Plug-In . SVG Version: 6.00 Build 0)  -->
<!DOCTYPE svg PUBLIC "-//W3C//DTD SVG 1.1//EN" "http://www.w3.org/Graphics/SVG/1.1/DTD/svg11.dtd" [
	<!ENTITY ns_flows "http://ns.adobe.com/Flows/1.0/">
	<!ENTITY ns_extend "http://ns.adobe.com/Extensibility/1.0/">
	<!ENTITY ns_ai "http://ns.adobe.com/AdobeIllustrator/10.0/">
	<!ENTITY ns_graphs "http://ns.adobe.com/Graphs/1.0/">
]>
<svg version="1.1" id="Capa_1" xmlns:x="&ns_extend;" xmlns:i="&ns_ai;" xmlns:graph="&ns_graphs;"
	 xmlns="http://www.w3.org/2000/svg" xmlns:xlink="http://www.w3.org/1999/xlink" xmlns:a="http://ns.adobe.com/AdobeSVGViewerExtensions/3.0/"
	 x="0px" y="0px" width="8.283px" height="6.425px" viewBox="0 0 8.283 6.425" enable-background="new 0 0 8.283 6.425"
	 xml:space="preserve">
<g>
	<g id="L1_13_1_" transform="matrix(0.12958963215351105 0 0 0.12958963215351105 155 306)">
		<path fill="#FFC627" d="M-1172.96-2355.739c-9.729,0-17.604,7.913-17.604,17.604c0,9.725,7.913,17.607,17.604,17.607
			c9.729,0,17.604-7.913,17.604-17.607C-1155.356-2347.864-1163.231-2355.739-1172.96-2355.739z M-1172.96-2322.601
			c-8.568,0-15.539-6.971-15.539-15.535c0-8.564,6.971-15.535,15.539-15.535s15.539,6.971,15.539,15.535
			C-1157.421-2329.571-1164.392-2322.601-1172.96-2322.601z"/>
		<path fill="#FFC627" d="M-1162.794-2332.977l-5.772-5.049l3.956-3.448c1.017-0.87,1.598-2.144,1.635-3.485
			c0.03-1.341-0.475-2.649-1.417-3.594l0,0c-0.475-0.471-1.13-0.724-1.778-0.69c-0.656,0.038-1.311,0.328-1.748,0.836l-5.042,5.769
			l-3.451-3.956c-0.866-1.014-2.14-1.598-3.481-1.632c-1.341-0.038-2.653,0.471-3.595,1.417c-0.475,0.471-0.723,1.123-0.686,1.779
			c0.03,0.652,0.324,1.307,0.829,1.741l5.772,5.045l-3.956,3.448c-1.017,0.871-1.598,2.144-1.635,3.485
			c-0.03,1.342,0.475,2.645,1.417,3.595l0,0c0.437,0.437,1.093,0.693,1.71,0.693c0.038,0,0.038,0,0.068,0
			c0.656-0.045,1.311-0.332,1.748-0.844l5.042-5.765l3.451,3.956c0.866,1.01,2.14,1.598,3.481,1.628c0.038,0,0.105,0,0.143,0
			c1.273,0,2.509-0.505,3.414-1.417c0.475-0.467,0.723-1.115,0.723-1.779C-1161.965-2331.892-1162.289-2332.548-1162.794-2332.977z
			 M-1166.351-2347.065c0.068-0.109,0.181-0.109,0.249-0.109c0.075,0,0.181,0,0.256,0.109l0,0c0.543,0.546,0.836,1.27,0.799,2.035
			c-0.038,0.761-0.362,1.488-0.942,1.993l-4.069,3.557c-0.324-0.686-0.867-1.232-1.56-1.56L-1166.351-2347.065z M-1172.96-2336.975
			c-0.656,0-1.16-0.542-1.16-1.16c0-0.652,0.542-1.161,1.16-1.161c0.656,0,1.161,0.543,1.161,1.161
			C-1171.799-2337.484-1172.304-2336.975-1172.96-2336.975z M-1182.108-2345.106c0-0.072,0-0.181,0.113-0.252
			c0.542-0.546,1.266-0.836,2.027-0.799c0.761,0.038,1.492,0.362,1.997,0.942l3.632,4.175c-0.693,0.328-1.236,0.874-1.56,1.56
			l-6.096-5.335C-1182.071-2344.959-1182.108-2345.031-1182.108-2345.106z M-1179.787-2329.209
			c-0.068,0.113-0.181,0.113-0.249,0.113c-0.075,0-0.181,0-0.256-0.113l0,0c-0.543-0.542-0.836-1.266-0.799-2.035
			c0.038-0.754,0.362-1.485,0.942-1.99l4.213-3.67c0.294,0.693,0.799,1.274,1.484,1.635L-1179.787-2329.209z M-1164.143-2330.913
			c-0.542,0.543-1.266,0.836-2.027,0.799c-0.761-0.038-1.492-0.362-1.997-0.942l-3.594-4.103c0.686-0.29,1.304-0.836,1.635-1.488
			l5.953,5.192c0.106,0.075,0.106,0.181,0.106,0.256C-1164.03-2331.094-1164.03-2330.988-1164.143-2330.913z"/>
		<path fill="#FFC627" d="M-1135.394-2361.293h-57.46c-1.778,0-3.225,1.45-3.225,3.229v39.819c0,1.778,1.447,3.233,3.225,3.233
			h0.075v1.16c0,1.198,0.942,2.14,2.14,2.14h2.51c0.904,0,1.741-0.58,2.027-1.447l0.618-1.854h42.72l0.618,1.854
			c0.294,0.867,1.13,1.447,2.035,1.447h2.502c1.198,0,2.148-0.942,2.148-2.14v-1.16h0.068c1.778,0,3.233-1.455,3.233-3.233v-39.781
			C-1132.123-2359.805-1133.578-2361.293-1135.394-2361.293z M-1188.062-2313.776c0,0.03-0.038,0.03-0.068,0.03h-2.51
			c-0.038,0-0.068-0.03-0.068-0.075v-1.161h3.044L-1188.062-2313.776z M-1137.534-2313.821c0,0.045-0.038,0.075-0.075,0.075h-2.502
			c-0.038,0-0.075-0.03-0.075-0.03l-0.399-1.206h3.052V-2313.821z M-1134.196-2318.245c0,0.656-0.543,1.16-1.161,1.16h-57.46
			c-0.648,0-1.161-0.542-1.161-1.16v-39.781c0-0.656,0.543-1.16,1.161-1.16h57.46c0.656,0,1.161,0.542,1.161,1.16V-2318.245z"/>
	</g>
</g>
<g>
</g>
<g>
</g>
<g>
</g>
<g>
</g>
<g>
</g>
<g>
</g>
<g>
</g>
<g>
</g>
<g>
</g>
<g>
</g>
<g>
</g>
<g>
</g>
<g>
</g>
<g>
</g>
<g>
</g>
</svg>
