<?xml version="1.0" encoding="utf-8"?>
<!-- Generator: Adobe Illustrator 16.0.0, SVG Export Plug-In . SVG Version: 6.00 Build 0)  -->
<!DOCTYPE svg PUBLIC "-//W3C//DTD SVG 1.1//EN" "http://www.w3.org/Graphics/SVG/1.1/DTD/svg11.dtd" [
	<!ENTITY ns_flows "http://ns.adobe.com/Flows/1.0/">
	<!ENTITY ns_extend "http://ns.adobe.com/Extensibility/1.0/">
	<!ENTITY ns_ai "http://ns.adobe.com/AdobeIllustrator/10.0/">
	<!ENTITY ns_graphs "http://ns.adobe.com/Graphs/1.0/">
]>
<svg version="1.1" id="Capa_1" xmlns:x="&ns_extend;" xmlns:i="&ns_ai;" xmlns:graph="&ns_graphs;"
	 xmlns="http://www.w3.org/2000/svg" xmlns:xlink="http://www.w3.org/1999/xlink" xmlns:a="http://ns.adobe.com/AdobeSVGViewerExtensions/3.0/"
	 x="0px" y="0px" width="4.102px" height="6.97px" viewBox="0 0 4.102 6.97" enable-background="new 0 0 4.102 6.97"
	 xml:space="preserve">
<g>
	<path fill="#FFC627" d="M0.617,1.779c0.036,0,0.072,0,0.072-0.036l0.473-0.472c0.036-0.036,0.036-0.109,0-0.181
		c-0.037-0.037-0.109-0.037-0.182,0L0.508,1.561c-0.036,0.036-0.036,0.109,0,0.182C0.545,1.743,0.581,1.779,0.617,1.779z"/>
	<path fill="#FFC627" d="M0.617,2.359c0.036,0,0.072,0,0.072-0.036l0.218-0.218c0.037-0.036,0.037-0.109,0-0.182
		c-0.036-0.036-0.108-0.036-0.181,0L0.508,2.142c-0.036,0.037-0.036,0.109,0,0.182C0.545,2.359,0.581,2.359,0.617,2.359z"/>
	<path fill="#FFC627" d="M0.98,1.706C0.944,1.743,0.944,1.743,0.944,1.779s0,0.073,0.036,0.073c0.036,0.036,0.036,0.036,0.072,0.036
		s0.072,0,0.072-0.036c0.037-0.037,0.037-0.037,0.037-0.073s0-0.073-0.037-0.073C1.125,1.634,1.017,1.634,0.98,1.706z"/>
	<path fill="#FFC627" d="M1.307,1.67c0.036,0,0.073,0,0.073-0.036l0.362-0.363c0.036-0.036,0.036-0.109,0-0.181
		c-0.036-0.037-0.108-0.037-0.182,0L1.198,1.452c-0.036,0.036-0.036,0.109,0,0.182C1.234,1.634,1.271,1.67,1.307,1.67z"/>
	<path fill="#FFC627" d="M0.617,2.94c0.036,0,0.072,0,0.072-0.036l1.053-1.053c0.036-0.037,0.036-0.109,0-0.182
		c-0.036-0.036-0.108-0.036-0.182,0L0.508,2.723c-0.036,0.036-0.036,0.109,0,0.182C0.545,2.94,0.581,2.94,0.617,2.94z"/>
	<path fill="#FFC627" d="M1.888,1.67c0.036,0,0.072,0,0.072-0.036c0.036-0.037,0.036-0.037,0.036-0.073s0-0.073-0.036-0.073
		c-0.036-0.036-0.108-0.036-0.182,0C1.742,1.525,1.742,1.525,1.742,1.561s0,0.073,0.036,0.073C1.815,1.634,1.852,1.67,1.888,1.67z"
		/>
	<path fill="#FFC627" d="M2.142,1.416c0.036,0,0.072,0,0.072-0.037l0.109-0.109c0.036-0.036,0.036-0.109,0-0.181
		c-0.036-0.037-0.109-0.037-0.182,0L2.033,1.198c-0.037,0.036-0.037,0.109,0,0.181C2.069,1.416,2.105,1.416,2.142,1.416z"/>
	<path fill="#FFC627" d="M3.666,0H0.581C0.327,0,0.109,0.218,0.109,0.472v0.254v0.363C0.036,1.089,0,1.125,0,1.198v0.109
		c0,0.072,0.036,0.109,0.109,0.109v0.109C0.036,1.525,0,1.561,0,1.634v0.109c0,0.072,0.036,0.109,0.109,0.109V1.96
		C0.036,1.96,0,1.997,0,2.069v0.109c0,0.073,0.036,0.109,0.109,0.109v3.738v0.472c0,0.254,0.218,0.473,0.472,0.473H3.63
		c0.254,0,0.472-0.219,0.472-0.473V6.025V0.653V0.472C4.102,0.218,3.92,0,3.666,0z M1.815,6.788H0.581
		c-0.109,0-0.218-0.109-0.218-0.218V6.099h1.452C1.706,6.171,1.67,6.315,1.67,6.462C1.67,6.606,1.706,6.716,1.815,6.788z
		 M2.142,6.679c-0.146,0-0.218-0.108-0.218-0.217c0-0.146,0.109-0.219,0.218-0.219c0.146,0,0.218,0.109,0.218,0.219
		C2.359,6.57,2.251,6.679,2.142,6.679z M3.884,6.57c0,0.108-0.108,0.218-0.218,0.218H2.432C2.541,6.716,2.577,6.57,2.577,6.425
		c0-0.145-0.072-0.254-0.146-0.363h1.452V6.57z M3.884,5.88H0.363V0.98h3.521V5.88z M3.884,0.726H0.363V0.472
		c0-0.109,0.108-0.218,0.218-0.218H3.63c0.109,0,0.218,0.109,0.218,0.218v0.254H3.884z"/>
	<path fill="#FFC627" d="M2.577,0.363H1.996c-0.072,0-0.108,0.036-0.108,0.109s0.036,0.109,0.108,0.109h0.581
		c0.072,0,0.109-0.036,0.109-0.109S2.649,0.363,2.577,0.363z"/>
	<path fill="#FFC627" d="M1.67,0.363H1.561c-0.072,0-0.108,0.036-0.108,0.109s0.036,0.109,0.108,0.109H1.67
		c0.072,0,0.108-0.036,0.108-0.109S1.706,0.363,1.67,0.363z"/>
</g>
<g>
</g>
<g>
</g>
<g>
</g>
<g>
</g>
<g>
</g>
<g>
</g>
<g>
</g>
<g>
</g>
<g>
</g>
<g>
</g>
<g>
</g>
<g>
</g>
<g>
</g>
<g>
</g>
<g>
</g>
</svg>
