<?xml version="1.0" encoding="utf-8"?>
<!-- Generator: Adobe Illustrator 16.0.0, SVG Export Plug-In . SVG Version: 6.00 Build 0)  -->
<!DOCTYPE svg PUBLIC "-//W3C//DTD SVG 1.1//EN" "http://www.w3.org/Graphics/SVG/1.1/DTD/svg11.dtd" [
	<!ENTITY ns_flows "http://ns.adobe.com/Flows/1.0/">
	<!ENTITY ns_extend "http://ns.adobe.com/Extensibility/1.0/">
	<!ENTITY ns_ai "http://ns.adobe.com/AdobeIllustrator/10.0/">
	<!ENTITY ns_graphs "http://ns.adobe.com/Graphs/1.0/">
]>
<svg version="1.1" id="Capa_1" xmlns:x="&ns_extend;" xmlns:i="&ns_ai;" xmlns:graph="&ns_graphs;"
	 xmlns="http://www.w3.org/2000/svg" xmlns:xlink="http://www.w3.org/1999/xlink" xmlns:a="http://ns.adobe.com/AdobeSVGViewerExtensions/3.0/"
	 x="0px" y="0px" width="5.554px" height="9.873px" viewBox="0 0 5.554 9.873" enable-background="new 0 0 5.554 9.873"
	 xml:space="preserve">
<g>
	<path fill="#FFC627" d="M5.009,0H0.544C0.254,0,0,0.254,0,0.544v8.566v0.145v0.617h0.907V9.255h3.739v0.617h0.907V9.255V9.111
		V0.544C5.554,0.254,5.3,0,5.009,0z M0.617,9.619H0.326v-0.29h0.291V9.619z M5.263,9.619h-0.29v-0.29h0.29V9.619z M5.263,9.001H0.29
		V4.247h4.973V9.001z M5.263,3.957H0.29V3.739h4.973V3.957z M5.263,3.448H0.29V0.581c0-0.145,0.109-0.254,0.254-0.254h4.429
		c0.146,0,0.254,0.109,0.254,0.254v2.868H5.263z"/>
	<path fill="#FFC627" d="M1.307,1.198c-0.218,0-0.363,0.182-0.363,0.363v1.162c0,0.218,0.182,0.363,0.363,0.363
		c0.218,0,0.363-0.182,0.363-0.363V1.561C1.706,1.379,1.524,1.198,1.307,1.198z M1.379,2.758c0,0.037-0.036,0.073-0.072,0.073
		S1.234,2.795,1.234,2.758V1.597c0-0.037,0.036-0.073,0.072-0.073s0.072,0.036,0.072,0.073V2.758z"/>
	<path fill="#FFC627" d="M1.307,6.498c0.218,0,0.363-0.182,0.363-0.363V4.972c0-0.217-0.182-0.362-0.363-0.362
		c-0.218,0-0.363,0.182-0.363,0.362v1.162C0.943,6.316,1.125,6.498,1.307,6.498z M1.234,4.937c0-0.037,0.036-0.073,0.072-0.073
		S1.379,4.9,1.379,4.937v1.161c0,0.036-0.036,0.072-0.072,0.072S1.234,6.134,1.234,6.098V4.937z"/>
</g>
<g>
</g>
<g>
</g>
<g>
</g>
<g>
</g>
<g>
</g>
<g>
</g>
<g>
</g>
<g>
</g>
<g>
</g>
<g>
</g>
<g>
</g>
<g>
</g>
<g>
</g>
<g>
</g>
<g>
</g>
</svg>
