<?xml version="1.0" encoding="utf-8"?>
<!-- Generator: Adobe Illustrator 16.0.0, SVG Export Plug-In . SVG Version: 6.00 Build 0)  -->
<!DOCTYPE svg PUBLIC "-//W3C//DTD SVG 1.1//EN" "http://www.w3.org/Graphics/SVG/1.1/DTD/svg11.dtd" [
	<!ENTITY ns_flows "http://ns.adobe.com/Flows/1.0/">
	<!ENTITY ns_extend "http://ns.adobe.com/Extensibility/1.0/">
	<!ENTITY ns_ai "http://ns.adobe.com/AdobeIllustrator/10.0/">
	<!ENTITY ns_graphs "http://ns.adobe.com/Graphs/1.0/">
]>
<svg version="1.1" id="Capa_1" xmlns:x="&ns_extend;" xmlns:i="&ns_ai;" xmlns:graph="&ns_graphs;"
	 xmlns="http://www.w3.org/2000/svg" xmlns:xlink="http://www.w3.org/1999/xlink" xmlns:a="http://ns.adobe.com/AdobeSVGViewerExtensions/3.0/"
	 x="0px" y="0px" width="6.501px" height="7.855px" viewBox="0 0 6.501 7.855" enable-background="new 0 0 6.501 7.855"
	 xml:space="preserve">
<g>
	<g id="L1_16_1_" transform="matrix(0.12958963215351105 0 0 0.12958963215351105 129 163)">
		<path fill="#FFC627" d="M-975.628-1244.309c1.703,0,3.082-1.379,3.082-3.086c0-1.341-0.867-2.502-2.103-2.901v-0.219
			c0-0.546-0.437-0.98-0.979-0.98c-0.543,0-0.98,0.433-0.98,0.98v0.219c-1.198,0.399-2.11,1.56-2.11,2.901
			C-978.718-1245.688-977.339-1244.309-975.628-1244.309z M-975.628-1248.484c0.618,0,1.123,0.509,1.123,1.127
			s-0.505,1.123-1.123,1.123s-1.13-0.505-1.13-1.123S-976.246-1248.484-975.628-1248.484z"/>
		<path fill="#FFC627" d="M-986.08-1244.309c1.703,0,3.082-1.379,3.082-3.086c0-1.341-0.874-2.502-2.103-2.901v-0.219
			c0-0.546-0.437-0.98-0.979-0.98c-0.55,0-0.98,0.433-0.98,0.98v0.219c-1.198,0.399-2.11,1.56-2.11,2.901
			C-989.17-1245.688-987.791-1244.309-986.08-1244.309z M-986.08-1248.484c0.61,0,1.123,0.509,1.123,1.127s-0.512,1.123-1.123,1.123
			c-0.618,0-1.13-0.505-1.13-1.123S-986.698-1248.484-986.08-1248.484z"/>
		<path fill="#FFC627" d="M-954.686-1244.309c1.703,0,3.082-1.379,3.082-3.086c0-1.341-0.866-2.502-2.102-2.901v-0.219
			c0-0.546-0.437-0.98-0.98-0.98c-0.543,0-0.98,0.433-0.98,0.98v0.219c-1.198,0.399-2.103,1.56-2.103,2.901
			C-957.769-1245.688-956.389-1244.309-954.686-1244.309z M-954.686-1248.484c0.618,0,1.123,0.509,1.123,1.127
			s-0.505,1.123-1.123,1.123s-1.123-0.505-1.123-1.123S-955.304-1248.484-954.686-1248.484z"/>
		<path fill="#FFC627" d="M-965.176-1244.309c1.703,0,3.082-1.379,3.082-3.086c0-1.341-0.867-2.502-2.103-2.901v-0.219
			c0-0.546-0.437-0.98-0.979-0.98c-0.543,0-0.98,0.433-0.98,0.98v0.219c-1.198,0.399-2.103,1.56-2.103,2.901
			C-968.228-1245.688-966.849-1244.309-965.176-1244.309z M-965.176-1248.484c0.618,0,1.123,0.509,1.123,1.127
			s-0.505,1.123-1.123,1.123s-1.123-0.505-1.123-1.123C-966.269-1247.975-965.794-1248.484-965.176-1248.484z"/>
		<path fill="#FFC627" d="M-954.686-1233.71h-31.394c-0.55,0-0.98,0.437-0.98,0.98c0,0.546,0.429,0.979,0.98,0.979h31.394
			c0.542,0,0.98-0.433,0.98-0.979C-953.707-1233.273-954.144-1233.71-954.686-1233.71z"/>
		<path fill="#FFC627" d="M-951.566-1237.885h-37.671c-1.13,0-2.035,0.908-2.035,2.035v29.329c0,1.123,0.904,2.027,2.035,2.027
			h37.671c1.13,0,2.035-0.904,2.035-2.027v-29.329C-949.532-1236.976-950.436-1237.885-951.566-1237.885z M-951.491-1206.558
			c0,0.038-0.038,0.075-0.075,0.075h-37.671c-0.038,0-0.075-0.038-0.075-0.075v-29.329c0-0.038,0.038-0.072,0.075-0.072h37.671
			c0.038,0,0.075,0.034,0.075,0.072V-1206.558z"/>
		<path fill="#FFC627" d="M-954.686-1229.497h-31.394c-0.55,0-0.98,0.433-0.98,0.979v18.84c0,0.542,0.429,0.979,0.98,0.979h31.394
			c0.542,0,0.98-0.437,0.98-0.979v-18.84C-953.707-1229.064-954.144-1229.497-954.686-1229.497z M-955.666-1210.658h-29.435v-16.88
			h29.435V-1210.658z"/>
		<path fill="#FFC627" d="M-947.354-1254.652h-2.14v-1.127c0-1.126-0.912-2.035-2.035-2.035h-14.665
			c-1.123,0-2.035,0.908-2.035,2.035v1.127h-4.318v-1.127c0-1.126-0.904-2.035-2.035-2.035h-14.657c-1.13,0-2.035,0.908-2.035,2.035
			v1.127h-2.14c-1.13,0-2.035,0.904-2.035,2.031v53.395c0,1.123,0.904,2.027,2.035,2.027h2.102c1.123,0,2.035-0.904,2.035-2.027
			v-1.123h37.822v1.123c0,1.123,0.904,2.027,2.027,2.027h2.11c1.123,0,2.035-0.904,2.035-2.027v-53.395
			C-945.319-1253.71-946.269-1254.652-947.354-1254.652z M-966.269-1255.744c0-0.034,0.038-0.072,0.075-0.072h14.665
			c0.038,0,0.075,0.038,0.075,0.072v1.127h-14.778v-1.127H-966.269z M-989.313-1255.744c0-0.034,0.038-0.072,0.075-0.072h14.657
			c0.038,0,0.075,0.038,0.075,0.072v1.127h-14.77v-1.127H-989.313z M-993.413-1252.658h46.059c0.038,0,0.075,0.038,0.075,0.075
			v10.524h-46.209v-10.524C-993.488-1252.658-993.45-1252.658-993.413-1252.658z M-947.354-1199.158h-2.103
			c-0.038,0-0.075-0.03-0.075-0.068v-2.103c0-0.55-0.437-0.98-0.98-0.98h-39.781c-0.542,0-0.979,0.43-0.979,0.98v2.103
			c0,0.038-0.038,0.068-0.075,0.068h-2.103c-0.038,0-0.075-0.03-0.075-0.068v-40.908h46.209v40.908
			C-947.316-1199.188-947.316-1199.158-947.354-1199.158z"/>
	</g>
</g>
<g>
</g>
<g>
</g>
<g>
</g>
<g>
</g>
<g>
</g>
<g>
</g>
<g>
</g>
<g>
</g>
<g>
</g>
<g>
</g>
<g>
</g>
<g>
</g>
<g>
</g>
<g>
</g>
<g>
</g>
</svg>
