<?xml version="1.0" encoding="utf-8"?>
<!-- Generator: Adobe Illustrator 16.0.0, SVG Export Plug-In . SVG Version: 6.00 Build 0)  -->
<!DOCTYPE svg PUBLIC "-//W3C//DTD SVG 1.1//EN" "http://www.w3.org/Graphics/SVG/1.1/DTD/svg11.dtd" [
	<!ENTITY ns_flows "http://ns.adobe.com/Flows/1.0/">
	<!ENTITY ns_extend "http://ns.adobe.com/Extensibility/1.0/">
	<!ENTITY ns_ai "http://ns.adobe.com/AdobeIllustrator/10.0/">
	<!ENTITY ns_graphs "http://ns.adobe.com/Graphs/1.0/">
]>
<svg version="1.1" id="Capa_1" xmlns:x="&ns_extend;" xmlns:i="&ns_ai;" xmlns:graph="&ns_graphs;"
	 xmlns="http://www.w3.org/2000/svg" xmlns:xlink="http://www.w3.org/1999/xlink" xmlns:a="http://ns.adobe.com/AdobeSVGViewerExtensions/3.0/"
	 x="0px" y="0px" width="8.022px" height="5.626px" viewBox="0 0 8.022 5.626" enable-background="new 0 0 8.022 5.626"
	 xml:space="preserve">
<g>
	<g>
		<g id="L1_11_1_" transform="matrix(1 0 0 1 -28 24)">
			<path fill="#FFC627" d="M29.524-22.221c0.037,0,0.073,0,0.109-0.036l0.544-0.545c0.037-0.036,0.037-0.145,0-0.181
				c-0.036-0.037-0.145-0.037-0.181,0l-0.545,0.544c-0.036,0.036-0.036,0.145,0,0.182C29.452-22.221,29.488-22.221,29.524-22.221z"
				/>
			<path fill="#FFC627" d="M29.524-21.568c0.037,0,0.073,0,0.109-0.036l0.254-0.254c0.036-0.036,0.036-0.145,0-0.181
				c-0.036-0.037-0.146-0.037-0.182,0l-0.254,0.254c-0.036,0.036-0.036,0.145,0,0.182C29.452-21.568,29.488-21.568,29.524-21.568z"
				/>
			<path fill="#FFC627" d="M29.96-22.33c-0.036,0.036-0.036,0.073-0.036,0.109s0,0.072,0.036,0.109
				c0.037,0.036,0.073,0.036,0.109,0.036s0.072,0,0.108-0.036c0.037-0.037,0.037-0.073,0.037-0.109s0-0.073-0.037-0.109
				C30.105-22.367,30.033-22.367,29.96-22.33z"/>
			<path fill="#FFC627" d="M30.251-22.403c0.036,0.036,0.072,0.036,0.108,0.036s0.073,0,0.109-0.036l0.399-0.399
				c0.036-0.036,0.036-0.145,0-0.181c-0.036-0.037-0.146-0.037-0.182,0l-0.399,0.399C30.178-22.548,30.178-22.439,30.251-22.403z"/>
			<path fill="#FFC627" d="M35.805-19.208h-0.182v-4.247c0-0.29-0.254-0.544-0.545-0.544h-6.134c-0.291,0-0.545,0.254-0.545,0.544
				v4.283h-0.182c-0.108,0-0.218,0.109-0.218,0.218v0.363c0,0.108,0.109,0.218,0.218,0.218h7.587c0.108,0,0.218-0.109,0.218-0.218
				v-0.363C35.985-19.1,35.913-19.208,35.805-19.208z M28.653-23.456c0-0.145,0.109-0.29,0.291-0.29h6.098
				c0.146,0,0.29,0.109,0.29,0.29v4.283h-2.649L32.646-19.1c0,0.037-0.036,0.037-0.072,0.037h-1.053
				c-0.036,0-0.036-0.037-0.073-0.037l-0.036-0.072h-2.795v-4.283H28.653z M35.731-18.665h-7.477v-0.254h0.145h2.868
				c0.072,0.072,0.145,0.146,0.254,0.146h1.053c0.108,0,0.218-0.036,0.254-0.146h2.722h0.146v0.254H35.731z"/>
			<path fill="#FFC627" d="M35.006-23.456H28.98v4.029h6.025V-23.456z M34.86-19.608h-5.734v-3.666h5.734V-19.608z"/>
		</g>
	</g>
</g>
<g>
</g>
<g>
</g>
<g>
</g>
<g>
</g>
<g>
</g>
<g>
</g>
<g>
</g>
<g>
</g>
<g>
</g>
<g>
</g>
<g>
</g>
<g>
</g>
<g>
</g>
<g>
</g>
<g>
</g>
</svg>
