<?xml version="1.0" encoding="utf-8"?>
<!-- Generator: Adobe Illustrator 16.0.0, SVG Export Plug-In . SVG Version: 6.00 Build 0)  -->
<!DOCTYPE svg PUBLIC "-//W3C//DTD SVG 1.1//EN" "http://www.w3.org/Graphics/SVG/1.1/DTD/svg11.dtd" [
	<!ENTITY ns_flows "http://ns.adobe.com/Flows/1.0/">
	<!ENTITY ns_extend "http://ns.adobe.com/Extensibility/1.0/">
	<!ENTITY ns_ai "http://ns.adobe.com/AdobeIllustrator/10.0/">
	<!ENTITY ns_graphs "http://ns.adobe.com/Graphs/1.0/">
]>
<svg version="1.1" id="Capa_1" xmlns:x="&ns_extend;" xmlns:i="&ns_ai;" xmlns:graph="&ns_graphs;"
	 xmlns="http://www.w3.org/2000/svg" xmlns:xlink="http://www.w3.org/1999/xlink" xmlns:a="http://ns.adobe.com/AdobeSVGViewerExtensions/3.0/"
	 x="0px" y="0px" width="3.356px" height="3.381px" viewBox="0 0 3.356 3.381" enable-background="new 0 0 3.356 3.381"
	 xml:space="preserve">
<path fill="#FFC627" d="M1.689,0C0.749,0,0,0.749,0,1.69s0.749,1.69,1.689,1.69c0.339,0,0.677-0.097,0.967-0.29l-0.193-0.29
	C2.246,2.946,1.98,3.043,1.689,3.043c-0.748,0-1.352-0.604-1.352-1.353s0.604-1.353,1.352-1.353c0.749,0,1.353,0.604,1.353,1.353
	v0.121c0,0.241-0.097,0.386-0.266,0.386l0,0H2.752H2.729c-0.097,0-0.242-0.145-0.242-0.241V1.69c0-0.435-0.338-0.772-0.771-0.772
	c-0.435,0-0.773,0.338-0.773,0.772S1.28,2.463,1.715,2.463c0.217,0,0.386-0.072,0.531-0.217c0.12,0.169,0.289,0.289,0.482,0.289l0,0
	h0.023l0,0c0.363,0,0.604-0.289,0.604-0.7v-0.12C3.381,0.772,2.607,0,1.689,0z"/>
<g>
</g>
<g>
</g>
<g>
</g>
<g>
</g>
<g>
</g>
<g>
</g>
<g>
</g>
<g>
</g>
<g>
</g>
<g>
</g>
<g>
</g>
<g>
</g>
<g>
</g>
<g>
</g>
<g>
</g>
</svg>
