<?xml version="1.0" encoding="utf-8"?>
<!-- Generator: Adobe Illustrator 16.0.0, SVG Export Plug-In . SVG Version: 6.00 Build 0)  -->
<!DOCTYPE svg PUBLIC "-//W3C//DTD SVG 1.1//EN" "http://www.w3.org/Graphics/SVG/1.1/DTD/svg11.dtd" [
	<!ENTITY ns_flows "http://ns.adobe.com/Flows/1.0/">
	<!ENTITY ns_extend "http://ns.adobe.com/Extensibility/1.0/">
	<!ENTITY ns_ai "http://ns.adobe.com/AdobeIllustrator/10.0/">
	<!ENTITY ns_graphs "http://ns.adobe.com/Graphs/1.0/">
]>
<svg version="1.1" id="Capa_1" xmlns:x="&ns_extend;" xmlns:i="&ns_ai;" xmlns:graph="&ns_graphs;"
	 xmlns="http://www.w3.org/2000/svg" xmlns:xlink="http://www.w3.org/1999/xlink" xmlns:a="http://ns.adobe.com/AdobeSVGViewerExtensions/3.0/"
	 x="0px" y="0px" width="3.183px" height="3.676px" viewBox="0 0 3.183 3.676" enable-background="new 0 0 3.183 3.676"
	 xml:space="preserve">
<path fill="#FFC627" d="M2.89,2.272l-0.7-0.097c-0.193-0.024-0.362,0.097-0.387,0.29C1.37,2.345,1.079,1.959,1.055,1.5
	c0.193,0.024,0.362-0.121,0.387-0.314l0.096-0.7C1.562,0.293,1.442,0.124,1.249,0.1l-0.7-0.097C0.355-0.021,0.186,0.1,0.162,0.293
	L0.017,1.186c-0.145,1.159,0.652,2.222,1.811,2.366l0.869,0.121c0.193,0.024,0.362-0.121,0.387-0.29l0.097-0.7
	C3.204,2.489,3.083,2.297,2.89,2.272z"/>
<g>
</g>
<g>
</g>
<g>
</g>
<g>
</g>
<g>
</g>
<g>
</g>
<g>
</g>
<g>
</g>
<g>
</g>
<g>
</g>
<g>
</g>
<g>
</g>
<g>
</g>
<g>
</g>
<g>
</g>
</svg>
