<?xml version="1.0" encoding="utf-8"?>
<!-- Generator: Adobe Illustrator 16.0.0, SVG Export Plug-In . SVG Version: 6.00 Build 0)  -->
<!DOCTYPE svg PUBLIC "-//W3C//DTD SVG 1.1//EN" "http://www.w3.org/Graphics/SVG/1.1/DTD/svg11.dtd" [
	<!ENTITY ns_flows "http://ns.adobe.com/Flows/1.0/">
	<!ENTITY ns_extend "http://ns.adobe.com/Extensibility/1.0/">
	<!ENTITY ns_ai "http://ns.adobe.com/AdobeIllustrator/10.0/">
	<!ENTITY ns_graphs "http://ns.adobe.com/Graphs/1.0/">
]>
<svg version="1.1" id="Capa_1" xmlns:x="&ns_extend;" xmlns:i="&ns_ai;" xmlns:graph="&ns_graphs;"
	 xmlns="http://www.w3.org/2000/svg" xmlns:xlink="http://www.w3.org/1999/xlink" xmlns:a="http://ns.adobe.com/AdobeSVGViewerExtensions/3.0/"
	 x="0px" y="0px" width="2.366px" height="3.936px" viewBox="0 0 2.366 3.936" enable-background="new 0 0 2.366 3.936"
	 xml:space="preserve">
<g>
	<g>
		<g>
			<g>
				<path fill="#FFC627" d="M1.183,3.452c0.483-0.555,1.183-1.545,1.183-2.27C2.366,0.531,1.835,0,1.183,0S0,0.531,0,1.183
					C0,1.932,0.7,2.897,1.183,3.452z M1.183,0.41c0.434,0,0.796,0.362,0.796,0.797c0,0.483-0.483,1.231-0.796,1.642
					C0.869,2.438,0.386,1.69,0.386,1.207C0.386,0.772,0.748,0.41,1.183,0.41z"/>
				<circle fill="#FFC627" cx="1.183" cy="1.183" r="0.386"/>
				<rect x="0.386" y="3.549" fill="#FFC627" width="1.569" height="0.387"/>
			</g>
		</g>
	</g>
</g>
<g>
</g>
<g>
</g>
<g>
</g>
<g>
</g>
<g>
</g>
<g>
</g>
<g>
</g>
<g>
</g>
<g>
</g>
<g>
</g>
<g>
</g>
<g>
</g>
<g>
</g>
<g>
</g>
<g>
</g>
</svg>
