<?xml version="1.0" encoding="utf-8"?>
<!-- Generator: Adobe Illustrator 16.0.0, SVG Export Plug-In . SVG Version: 6.00 Build 0)  -->
<!DOCTYPE svg PUBLIC "-//W3C//DTD SVG 1.1//EN" "http://www.w3.org/Graphics/SVG/1.1/DTD/svg11.dtd" [
	<!ENTITY ns_flows "http://ns.adobe.com/Flows/1.0/">
	<!ENTITY ns_extend "http://ns.adobe.com/Extensibility/1.0/">
	<!ENTITY ns_ai "http://ns.adobe.com/AdobeIllustrator/10.0/">
	<!ENTITY ns_graphs "http://ns.adobe.com/Graphs/1.0/">
]>
<svg version="1.1" id="Capa_1" xmlns:x="&ns_extend;" xmlns:i="&ns_ai;" xmlns:graph="&ns_graphs;"
	 xmlns="http://www.w3.org/2000/svg" xmlns:xlink="http://www.w3.org/1999/xlink" xmlns:a="http://ns.adobe.com/AdobeSVGViewerExtensions/3.0/"
	 x="0px" y="0px" width="7.315px" height="7.437px" viewBox="0 0 7.315 7.437" enable-background="new 0 0 7.315 7.437"
	 xml:space="preserve">
<rect opacity="0.74" fill="#065CC4" enable-background="new    " width="7.315" height="7.437"/>
<path fill="#FFFFFF" d="M4.49,1.689H3.911c-0.652,0-1.087,0.435-1.087,1.111v0.507H2.245c-0.048,0-0.097,0.048-0.097,0.097v0.748
	c0,0.049,0.049,0.097,0.097,0.097h0.579v1.884c0,0.048,0.049,0.097,0.097,0.097h0.772c0.049,0,0.097-0.049,0.097-0.097V4.249h0.677
	c0.048,0,0.096-0.048,0.096-0.097V3.404c0-0.024,0-0.049-0.023-0.072C4.515,3.308,4.49,3.308,4.467,3.308h-0.7V2.873
	c0-0.218,0.048-0.313,0.313-0.313h0.387c0.048,0,0.096-0.049,0.096-0.097v-0.7C4.587,1.714,4.539,1.689,4.49,1.689L4.49,1.689z"/>
<g>
</g>
<g>
</g>
<g>
</g>
<g>
</g>
<g>
</g>
<g>
</g>
<g>
</g>
<g>
</g>
<g>
</g>
<g>
</g>
<g>
</g>
<g>
</g>
<g>
</g>
<g>
</g>
<g>
</g>
</svg>
